<svg width="33" height="30" viewBox="0 0 33 30" fill="none" xmlns="http://www.w3.org/2000/svg">
<path d="M30.282 24.0273L24.9513 21.7184C24.8258 21.6556 24.6867 21.5024 24.5673 21.2978L28.1264 21.2951C28.1885 21.3011 29.6558 21.4353 30.8324 20.9296C31.278 20.7376 31.6096 20.3585 31.7427 19.8895C31.8769 19.416 31.7918 18.9147 31.5104 18.5133C30.4931 17.0656 28.1187 13.2829 28.0445 9.44618C28.0429 9.38018 27.828 2.85545 21.3845 2.80255C20.436 2.81018 19.5589 2.97109 18.7609 3.26782C18.5869 2.82436 18.3305 2.36182 17.9493 1.92655C16.8295 0.648 15.0115 0 12.5455 0C10.0795 0 8.26145 0.648 7.14109 1.92545C5.84945 3.39873 5.96945 5.18509 6 5.48455V8.38582C5.65091 8.78345 5.45455 9.29236 5.45455 9.81764V11.9995C5.45455 12.6633 5.75618 13.2824 6.27109 13.6953C6.77073 15.6736 7.81636 17.1644 8.18182 17.6427V19.4476C8.18182 19.9756 7.89382 20.46 7.43073 20.7131L2.56473 23.3673C0.982364 24.2313 0 25.8862 0 27.6884V30H24H25.0909H32.7273V27.9835C32.7273 26.2969 31.7902 24.7816 30.282 24.0273ZM24 28.9091H1.09091V27.6884C1.09091 26.286 1.85564 24.9971 3.08673 24.3262L7.95273 21.672C8.76709 21.2275 9.27273 20.3749 9.27273 19.4482V17.256L9.14564 17.1044C9.13255 17.0885 7.79564 15.4713 7.28564 13.2507L7.236 13.0347L7.05 12.9147C6.73418 12.7107 6.54545 12.3687 6.54545 12V9.81818C6.54545 9.51218 6.67527 9.22691 6.91091 9.01364L7.09091 8.85164V5.45455L7.086 5.38309C7.08436 5.36836 6.89891 3.85636 7.96145 2.64436C8.86527 1.61345 10.4078 1.09091 12.5455 1.09091C14.6755 1.09091 16.2147 1.60964 17.1196 2.63345C17.5696 3.14182 17.796 3.70964 17.9089 4.19727C17.9176 4.23545 17.9258 4.27309 17.9335 4.31073C17.9411 4.34945 17.9493 4.38818 17.9553 4.42527C17.9624 4.46782 17.9684 4.50818 17.9744 4.54855C17.9787 4.57745 17.9831 4.60691 17.9864 4.63473C17.9945 4.70236 18.0011 4.76782 18.0055 4.82836C18.006 4.83327 18.006 4.83764 18.006 4.84255C18.0098 4.90145 18.0125 4.95709 18.0142 5.00782C18.0142 5.01764 18.0142 5.02582 18.0147 5.03564C18.0158 5.08091 18.0158 5.124 18.0153 5.16164C18.0153 5.16709 18.0153 5.17255 18.0153 5.178C18.0131 5.30618 18.0044 5.38255 18.0044 5.38418L18 8.85164L18.18 9.01418C18.4156 9.22691 18.5455 9.51218 18.5455 9.81818V12C18.5455 12.4762 18.2335 12.8929 17.7698 13.0358L17.4982 13.1193L17.4109 13.3893C17.046 14.5244 16.5262 15.5727 15.8651 16.5055C15.7031 16.7351 15.5455 16.9385 15.4085 17.094L15.2727 17.2489V19.4989C15.2727 19.6369 15.2864 19.7722 15.3076 19.9053C15.312 19.9336 15.3196 19.9609 15.3251 19.9893C15.3464 20.0989 15.3747 20.2064 15.4096 20.3111C15.4178 20.3356 15.4265 20.3591 15.4358 20.3836C15.4784 20.4976 15.528 20.6078 15.5858 20.7136C15.5924 20.7256 15.5984 20.7382 15.6049 20.7502C15.684 20.8898 15.7751 21.0224 15.8798 21.1445L16.0042 21.2978H16.0255C16.2125 21.4822 16.4275 21.6425 16.6718 21.7647L21.8825 24.3698C23.1889 25.0222 24 26.3345 24 27.7947V28.9091ZM31.6364 28.9091H25.0909V27.7947C25.0909 25.9189 24.0485 24.2329 22.3713 23.394L18.6305 21.5231C18.7227 21.3125 18.7347 21.0715 18.654 20.8391C18.5204 20.4545 18.1713 20.2064 17.7649 20.2064H16.5556C16.5305 20.1622 16.5142 20.1136 16.494 20.0667C16.4667 20.004 16.4345 19.9424 16.4165 19.8764C16.3833 19.7553 16.3636 19.6287 16.3636 19.4989V17.6547C16.4885 17.502 16.62 17.328 16.7558 17.136C17.4316 16.1815 17.9733 15.1189 18.3671 13.9729C19.1367 13.62 19.6364 12.8591 19.6364 12V9.81818C19.6364 9.29291 19.44 8.784 19.0909 8.38636V5.48509C19.1051 5.34873 19.1356 4.902 19.0451 4.31836C19.7476 4.04236 20.5347 3.9 21.3851 3.89291C26.7529 3.93709 26.9487 9.24436 26.9542 9.468C27.0344 13.6042 29.5429 17.61 30.618 19.14C30.7102 19.2709 30.738 19.4356 30.6938 19.5911C30.6687 19.6805 30.5967 19.8431 30.402 19.9265C29.4856 20.3209 28.2425 20.2091 28.1787 20.2064H24.4244C24.0736 20.2064 23.754 20.3847 23.5691 20.6831C23.3847 20.9804 23.3673 21.3436 23.5222 21.6556C23.6929 21.9998 23.9945 22.4596 24.4904 22.7067L29.8069 25.0096C30.9355 25.5796 31.6364 26.7175 31.6364 27.9835V28.9091Z" fill="white"/>
</svg>
