<svg width="30" height="30" viewBox="0 0 30 30" fill="none" xmlns="http://www.w3.org/2000/svg">
<path d="M29.5003 1.30904e-08C29.5003 1.30904e-08 29.5002 1.30904e-08 29.5001 1.30904e-08H0.500122C0.224059 -6.24869e-05 0.00018457 0.223687 0.00012207 0.49975C0.00012207 0.499812 0.00012207 0.499937 0.00012207 0.5V10.5H1.00012V0.999999H29.0001V12H11.5001V13H29.5001C29.7762 13.0001 30 12.7763 30.0001 12.5002C30.0001 12.5002 30.0001 12.5001 30.0001 12.5V0.5C30.0002 0.223937 29.7764 6.2513e-05 29.5003 1.30904e-08Z" fill="#2C78F6"/>
<path d="M26.5002 2.50024H16.5002V3.50024H26.5002V2.50024Z" fill="#2C78F6"/>
<path d="M28.0001 5.50024H18.0001V6.50024H28.0001V5.50024Z" fill="#2C78F6"/>
<path d="M26 8.49963H16V9.49963H26V8.49963Z" fill="#2C78F6"/>
<path d="M15.96 4.31063C15.6177 3.48782 14.6732 3.09832 13.8504 3.44063C13.8364 3.4465 13.8224 3.4525 13.8085 3.45875L9.75424 5.56188C9.91412 5.2305 9.99805 4.86763 9.99987 4.49975C9.99987 3.11907 8.88056 1.99976 7.49987 1.99976C6.11918 1.99976 4.99987 3.11907 4.99987 4.49975C5.00175 5.04244 5.18193 5.5695 5.51268 5.99975H5.49187C4.07262 6.00925 2.80569 6.89156 2.30463 8.2195L0.969877 12.8201C0.652127 13.6454 1.06363 14.5722 1.88906 14.8899C2.26544 15.0348 2.68263 15.0324 3.05731 14.8831C3.48781 14.7096 3.82281 14.3594 3.977 13.9216L4.49987 12.2576V19.494C4.06962 19.1633 3.54256 18.9831 2.99987 18.9812C1.62125 18.9791 0.50194 20.0951 0.499877 21.4737C0.498877 22.1489 0.771377 22.7957 1.25531 23.2665C0.487315 23.6589 0.00287794 24.4474 -0.000122057 25.3098V29.4997C-0.000184557 29.7758 0.223565 29.9997 0.499627 29.9997C0.49969 29.9997 0.499815 29.9997 0.499877 29.9997H5.49987C5.77593 29.9998 5.99981 29.776 5.99987 29.5C5.99987 29.4999 5.99987 29.4998 5.99987 29.4997V25.3098C5.99743 24.6011 5.66818 23.9332 5.10762 23.4997H8.89218C8.33156 23.9332 8.00231 24.6011 7.99993 25.3098V29.4997C7.99987 29.7758 8.22362 29.9997 8.49968 29.9997C8.49974 29.9997 8.49987 29.9997 8.49993 29.9997H13.4999C13.776 29.9998 13.9999 29.776 13.9999 29.5C13.9999 29.4999 13.9999 29.4998 13.9999 29.4997V25.3098C13.9969 24.4474 13.5125 23.6589 12.7445 23.2665C13.7317 22.303 13.7509 20.7215 12.7873 19.7344C12.1939 19.1264 11.3322 18.8617 10.4999 19.0317V8.80344L15.09 6.42013C15.9127 6.07788 16.3022 5.13338 15.96 4.31063ZM7.49987 2.99975C8.32831 2.99975 8.99987 3.67132 8.99987 4.49975C8.99987 5.32819 8.32831 5.99975 7.49987 5.99975C6.67181 5.99888 6.00075 5.32781 5.99987 4.49975C5.99987 3.67132 6.67143 2.99975 7.49987 2.99975ZM2.99987 19.9812C3.82831 19.9812 4.49987 20.6527 4.49987 21.4812C4.49987 22.3096 3.82831 22.9812 2.99987 22.9812C2.17144 22.9812 1.49988 22.3096 1.49988 21.4812C1.50075 20.6531 2.17181 19.9821 2.99987 19.9812ZM4.99987 28.9997H0.999877V25.3098C1.00088 24.5866 1.58694 24.0006 2.31019 23.9997H3.68956C4.41275 24.0006 4.99887 24.5866 4.99987 25.3098V28.9997ZM12.9999 25.3098V28.9997H8.99987V25.3098C9.00087 24.5866 9.58693 24.0006 10.3102 23.9997H11.6896C12.4128 24.0006 12.9989 24.5866 12.9999 25.3098ZM10.9999 19.9812C11.8279 19.982 12.499 20.6531 12.4999 21.4812C12.4999 22.3096 11.8283 22.9812 10.9999 22.9812C10.1714 22.9812 9.49987 22.3096 9.49987 21.4812C9.49987 20.6527 10.1714 19.9812 10.9999 19.9812ZM15.045 5.14475C14.9781 5.3165 14.8407 5.45131 14.6676 5.51488L9.76968 8.05587C9.60393 8.14187 9.49987 8.31306 9.49987 8.49975V19.494C8.56331 20.1865 8.23887 21.4398 8.72187 22.4997H7.99987V13.9997H6.99987V22.4997H5.27787C5.42012 22.1854 5.49506 21.8447 5.498 21.4997H5.49987V8.99975C5.49981 8.72356 5.27587 8.49975 4.99975 8.49981C4.78144 8.49987 4.58837 8.64156 4.52287 8.84987L3.02987 13.6008C2.91675 13.9128 2.57206 14.0741 2.26006 13.9609C2.23819 13.9529 2.21675 13.9437 2.19588 13.9333C1.90744 13.7842 1.785 13.4362 1.91663 13.1394L3.25131 8.53881C3.61125 7.61444 4.49981 7.00406 5.49181 6.99975H9.03212C9.11224 6.99988 9.19124 6.98056 9.26237 6.94363L14.2319 4.36407C14.53 4.23969 14.8736 4.36694 15.0187 4.65557C15.0957 4.80769 15.1052 4.98519 15.045 5.14475Z" fill="#2C78F6"/>
<path d="M20.7446 23.2669C21.7335 22.3034 21.7541 20.7205 20.7906 19.7316C19.8271 18.7427 18.2443 18.722 17.2554 19.6855C16.2664 20.649 16.2458 22.2319 17.2093 23.2208C17.2245 23.2364 17.2399 23.2517 17.2554 23.2669C16.4875 23.6592 16.003 24.4477 16 25.3101V29.5C15.9999 29.7761 16.2237 30 16.4997 30C16.4998 30 16.4999 30 16.5 30H21.5C21.7761 30.0001 21.9999 29.7763 22 29.5003C22 29.5002 22 29.5001 22 29.5V25.3101C21.997 24.4477 21.5126 23.6592 20.7446 23.2669ZM19 19.9815C19.8284 19.9815 20.5 20.653 20.5 21.4815C20.5 22.3099 19.8284 22.9815 19 22.9815C18.1716 22.9815 17.5 22.3099 17.5 21.4815C17.5009 20.6534 18.1719 19.9824 19 19.9815ZM21 29H17V25.3101C17.001 24.5869 17.5871 24.0009 18.3103 24H19.6897C20.4129 24.0009 20.999 24.5869 21 25.3101V29Z" fill="#2C78F6"/>
<path d="M28.7452 23.2669C29.7341 22.3034 29.7547 20.7205 28.7912 19.7316C27.8277 18.7427 26.2449 18.722 25.256 19.6855C24.267 20.649 24.2464 22.2319 25.2099 23.2208C25.2251 23.2364 25.2405 23.2517 25.256 23.2669C24.4881 23.6592 24.0036 24.4477 24.0006 25.3101V29.5C24.0005 29.7761 24.2243 30 24.5004 30C24.5004 30 24.5005 30 24.5006 30H29.5006C29.7767 30.0001 30.0005 29.7763 30.0006 29.5003C30.0006 29.5002 30.0006 29.5001 30.0006 29.5V25.3101C29.9976 24.4477 29.5132 23.6592 28.7452 23.2669ZM27.0006 19.9815C27.829 19.9815 28.5006 20.653 28.5006 21.4815C28.5006 22.3099 27.829 22.9815 27.0006 22.9815C26.1722 22.9815 25.5006 22.3099 25.5006 21.4815C25.5015 20.6534 26.1725 19.9824 27.0006 19.9815ZM29.0006 29H25.0006V25.3101C25.0016 24.5869 25.5877 24.0009 26.3109 24H27.6903C28.4135 24.0009 28.9996 24.5869 29.0006 25.3101V29Z" fill="#2C78F6"/>
</svg>
